<svg height="417.877" viewBox="0 0 518.054 313.408" width="690.739" xmlns="http://www.w3.org/2000/svg" xmlns:xlink="http://www.w3.org/1999/xlink"><defs><style>*{stroke-linecap:butt;stroke-linejoin:round}</style></defs><g id="figure_1"><path d="M0 313.408h518.054V0H0z" fill="none" id="patch_1"/><g id="axes_1"><path d="M77.805 286.26h357.12V20.148H77.805z" fill="none" id="patch_2"/><g id="matplotlib.axis_1"><g id="xtick_1"><g id="line2d_1"><defs><path d="M0 0v3.5" id="m4faf078997" stroke="#969696" stroke-width=".4"/></defs><use x="77.805" xlink:href="#m4faf078997" y="286.26" fill="#969696" stroke="#969696" stroke-width=".4"/></g><g transform="matrix(.14 0 0 -.14 67.025 303.31)" fill="#969696" id="text_1"><defs><path d="M35.89 0h-9.374v49.906H10.109v6.985q8.594.28 12.782 2.75Q27.094 62.109 29 70.313h6.89z" id="HelveticaWorld-Regular-49"/><path d="M42.484 34.188q0 14.109-3.734 21.156-3.734 7.062-10.969 7.062-7.078 0-10.89-7.062-3.797-7.047-3.797-21.157 0-13.671 3.75-20.937Q20.609 6 27.78 6q7.235 0 10.969 7 3.734 7.016 3.734 21.188zm9.422 0q0-17.297-6.25-26.704-6.25-9.39-17.875-9.39-12.062 0-18.062 9.734-6 9.75-6 26.36 0 17.03 6.14 26.578 6.157 9.547 17.922 9.547 11.625 0 17.875-9.5t6.25-26.626z" id="HelveticaWorld-Regular-48"/></defs><use transform="translate(0 .173)" xlink:href="#HelveticaWorld-Regular-49"/><use transform="translate(55.615 .173)" xlink:href="#HelveticaWorld-Regular-48"/><use transform="matrix(.7 0 0 .7 112.146 36.781)" xlink:href="#HelveticaWorld-Regular-48"/></g></g><g id="xtick_2"><use x="131.729" xlink:href="#m4faf078997" y="286.26" fill="#969696" stroke="#969696" stroke-width=".4" id="line2d_2"/><g transform="matrix(.14 0 0 -.14 120.949 303.31)" fill="#969696" id="text_2"><use transform="translate(0 .173)" xlink:href="#HelveticaWorld-Regular-49"/><use transform="translate(55.615 .173)" xlink:href="#HelveticaWorld-Regular-48"/><use transform="matrix(.7 0 0 .7 112.146 36.781)" xlink:href="#HelveticaWorld-Regular-49"/></g></g><g id="xtick_3"><use x="185.653" xlink:href="#m4faf078997" y="286.26" fill="#969696" stroke="#969696" stroke-width=".4" id="line2d_3"/><g transform="matrix(.14 0 0 -.14 174.873 303.31)" fill="#969696" id="text_3"><defs><path d="M4.39 45.125q0 12.39 6.391 18.781 6.406 6.407 17.938 6.407 9.656 0 15.812-5.86 6.157-5.86 6.157-15.14 0-7.22-3.547-12.188-3.532-4.953-10.422-8.703l-12.11-6.64Q13.922 15.921 12.5 8.296h38.188V0H2.593q.39 9.906 4.297 16.5 3.906 6.594 12.203 11.375l12.593 7.328q5.032 2.89 7.329 5.984 2.297 3.094 2.297 8.516 0 5.375-3.766 9.031-3.75 3.672-10.156 3.672-7.078 0-10.594-4.672-3.516-4.656-3.61-12.609z" id="HelveticaWorld-Regular-50"/></defs><use transform="translate(0 .173)" xlink:href="#HelveticaWorld-Regular-49"/><use transform="translate(55.615 .173)" xlink:href="#HelveticaWorld-Regular-48"/><use transform="matrix(.7 0 0 .7 112.146 36.781)" xlink:href="#HelveticaWorld-Regular-50"/></g></g><g id="xtick_4"><use x="239.577" xlink:href="#m4faf078997" y="286.26" fill="#969696" stroke="#969696" stroke-width=".4" id="line2d_4"/><g transform="matrix(.14 0 0 -.14 228.797 303.31)" fill="#969696" id="text_4"><defs><path d="M22.406 39.984q2.203-.187 4.594-.187 6.203 0 9.781 2.86 3.594 2.859 3.594 8.656 0 4.687-3.344 7.89-3.343 3.203-9.64 3.203-6.985 0-10.235-4.11-3.234-4.093-3.437-10.983h-8.64q0 10.984 5.765 16.984 5.765 6.016 16.937 6.016 9.922 0 15.828-5.11 5.907-5.094 5.907-13.39 0-10.704-9.032-14.5v-.204q11.72-4 11.72-16.406 0-9.906-6.595-16.265-6.593-6.344-18.703-6.344-9.906 0-16.312 5.203Q4.204 8.5 3.422 21.484H12.5q.203-8.109 4-11.797Q20.313 6 27.484 6q6.938 0 11.141 3.86 4.203 3.859 4.203 9.718 0 6.406-4.016 9.672-4 3.266-12.39 3.266-2 0-4.016-.094z" id="HelveticaWorld-Regular-51"/></defs><use transform="translate(0 .173)" xlink:href="#HelveticaWorld-Regular-49"/><use transform="translate(55.615 .173)" xlink:href="#HelveticaWorld-Regular-48"/><use transform="matrix(.7 0 0 .7 112.146 36.781)" xlink:href="#HelveticaWorld-Regular-51"/></g></g><g id="xtick_5"><use x="293.501" xlink:href="#m4faf078997" y="286.26" fill="#969696" stroke="#969696" stroke-width=".4" id="line2d_5"/><g transform="matrix(.14 0 0 -.14 282.72 303.31)" fill="#969696" id="text_5"><defs><path d="M10.594 24.703h22.61v31.89h-.188zM42 17.093V0h-8.797v17.094H2.484v8.593L34.72 70.314H42v-45.61h10.297v-7.61z" id="HelveticaWorld-Regular-52"/></defs><use transform="translate(0 .173)" xlink:href="#HelveticaWorld-Regular-49"/><use transform="translate(55.615 .173)" xlink:href="#HelveticaWorld-Regular-48"/><use transform="matrix(.7 0 0 .7 112.146 36.781)" xlink:href="#HelveticaWorld-Regular-52"/></g></g><g id="xtick_6"><use x="347.425" xlink:href="#m4faf078997" y="286.26" fill="#969696" stroke="#969696" stroke-width=".4" id="line2d_6"/><g transform="matrix(.14 0 0 -.14 336.645 303.31)" fill="#969696" id="text_6"><defs><path d="M14.703 40.922q5.813 4.39 13.625 4.39 9.469 0 16.281-6.296 6.813-6.297 6.813-16.22 0-10.78-6.578-17.796-6.563-7-18.422-7-10.313 0-16.266 5.047Q4.203 8.109 3.22 17.39h9.094q.671-5.672 4.437-8.672 3.766-3 10.453-3 6.485 0 10.64 4.484Q42 14.703 42 21.688q0 7.125-4.36 11.421-4.343 4.297-11.218 4.297-7.813 0-13.047-6.687l-7.563.39 5.266 37.594h36.438v-8.5H17.672z" id="HelveticaWorld-Regular-53"/></defs><use transform="translate(0 .3)" xlink:href="#HelveticaWorld-Regular-49"/><use transform="translate(55.615 .3)" xlink:href="#HelveticaWorld-Regular-48"/><use transform="matrix(.7 0 0 .7 112.146 36.908)" xlink:href="#HelveticaWorld-Regular-53"/></g></g><g id="xtick_7"><use x="401.349" xlink:href="#m4faf078997" y="286.26" fill="#969696" stroke="#969696" stroke-width=".4" id="line2d_7"/><g transform="matrix(.14 0 0 -.14 390.569 303.31)" fill="#969696" id="text_7"><defs><path d="M14.11 21.578q0-6.875 4.093-11.234Q22.313 6 28.906 6q6.297 0 10.032 4.438 3.734 4.453 3.734 11.687 0 6.297-3.688 10.547-3.687 4.25-10.468 4.25-6.594 0-10.5-4.156-3.907-4.157-3.907-11.188zM41.702 51.61q-.984 5.375-3.984 8.078-3 2.72-8.125 2.72-8.11 0-12.36-7.923-4.25-7.906-4.343-18.109l.203-.188q5.61 8.641 16.687 8.641 8.844 0 15.438-5.86 6.593-5.859 6.593-16.452 0-10.5-6.25-17.47-6.25-6.952-16.843-6.952-12.219 0-18.563 8.687-6.344 8.703-6.344 25.938 0 16.593 6.485 27.093 6.5 10.5 19.484 10.5 8.407 0 14.219-5.015 5.813-5 6.297-13.688z" id="HelveticaWorld-Regular-54"/></defs><use transform="translate(0 .173)" xlink:href="#HelveticaWorld-Regular-49"/><use transform="translate(55.615 .173)" xlink:href="#HelveticaWorld-Regular-48"/><use transform="matrix(.7 0 0 .7 112.146 36.781)" xlink:href="#HelveticaWorld-Regular-54"/></g></g></g><g id="matplotlib.axis_2"><g id="ytick_1"><path clip-path="url(#p63ff27fe31)" d="M77.805 253.782h357.12" fill="none" stroke="#969696" stroke-linecap="square" stroke-width=".3" id="line2d_8"/><g id="line2d_9"><defs><path d="M0 0h-3.5" id="m8eb464d9f8" stroke="#969696" stroke-width=".3"/></defs><use x="77.805" xlink:href="#m8eb464d9f8" y="253.782" fill="#969696" stroke="#969696" stroke-width=".3"/></g><g transform="matrix(.14 0 0 -.14 43.505 258.807)" fill="#969696" id="text_8"><defs><path d="M54.594 21.578H4v7.328h50.594z" id="HelveticaWorld-Regular-8722"/></defs><use transform="translate(0 .3)" xlink:href="#HelveticaWorld-Regular-49"/><use transform="translate(55.615 .3)" xlink:href="#HelveticaWorld-Regular-48"/><use transform="matrix(.7 0 0 .7 112.146 36.908)" xlink:href="#HelveticaWorld-Regular-8722"/><use transform="matrix(.7 0 0 .7 153.161 36.908)" xlink:href="#HelveticaWorld-Regular-53"/></g></g><g id="ytick_2"><path clip-path="url(#p63ff27fe31)" d="M77.805 200.35h357.12" fill="none" stroke="#969696" stroke-linecap="square" stroke-width=".3" id="line2d_10"/><use x="77.805" xlink:href="#m8eb464d9f8" y="200.35" fill="#969696" stroke="#969696" stroke-width=".3" id="line2d_11"/><g transform="matrix(.14 0 0 -.14 43.505 205.375)" fill="#969696" id="text_9"><use transform="translate(0 .173)" xlink:href="#HelveticaWorld-Regular-49"/><use transform="translate(55.615 .173)" xlink:href="#HelveticaWorld-Regular-48"/><use transform="matrix(.7 0 0 .7 112.146 36.781)" xlink:href="#HelveticaWorld-Regular-8722"/><use transform="matrix(.7 0 0 .7 153.161 36.781)" xlink:href="#HelveticaWorld-Regular-52"/></g></g><g id="ytick_3"><path clip-path="url(#p63ff27fe31)" d="M77.805 146.918h357.12" fill="none" stroke="#969696" stroke-linecap="square" stroke-width=".3" id="line2d_12"/><use x="77.805" xlink:href="#m8eb464d9f8" y="146.918" fill="#969696" stroke="#969696" stroke-width=".3" id="line2d_13"/><g transform="matrix(.14 0 0 -.14 43.505 151.943)" fill="#969696" id="text_10"><use transform="translate(0 .173)" xlink:href="#HelveticaWorld-Regular-49"/><use transform="translate(55.615 .173)" xlink:href="#HelveticaWorld-Regular-48"/><use transform="matrix(.7 0 0 .7 112.146 36.781)" xlink:href="#HelveticaWorld-Regular-8722"/><use transform="matrix(.7 0 0 .7 153.161 36.781)" xlink:href="#HelveticaWorld-Regular-51"/></g></g><g id="ytick_4"><path clip-path="url(#p63ff27fe31)" d="M77.805 93.487h357.12" fill="none" stroke="#969696" stroke-linecap="square" stroke-width=".3" id="line2d_14"/><use x="77.805" xlink:href="#m8eb464d9f8" y="93.487" fill="#969696" stroke="#969696" stroke-width=".3" id="line2d_15"/><g transform="matrix(.14 0 0 -.14 43.505 98.511)" fill="#969696" id="text_11"><use transform="translate(0 .173)" xlink:href="#HelveticaWorld-Regular-49"/><use transform="translate(55.615 .173)" xlink:href="#HelveticaWorld-Regular-48"/><use transform="matrix(.7 0 0 .7 112.146 36.781)" xlink:href="#HelveticaWorld-Regular-8722"/><use transform="matrix(.7 0 0 .7 153.161 36.781)" xlink:href="#HelveticaWorld-Regular-50"/></g></g><g id="ytick_5"><path clip-path="url(#p63ff27fe31)" d="M77.805 40.055h357.12" fill="none" stroke="#969696" stroke-linecap="square" stroke-width=".3" id="line2d_16"/><use x="77.805" xlink:href="#m8eb464d9f8" y="40.055" fill="#969696" stroke="#969696" stroke-width=".3" id="line2d_17"/><g transform="matrix(.14 0 0 -.14 43.505 45.08)" fill="#969696" id="text_12"><use transform="translate(0 .173)" xlink:href="#HelveticaWorld-Regular-49"/><use transform="translate(55.615 .173)" xlink:href="#HelveticaWorld-Regular-48"/><use transform="matrix(.7 0 0 .7 112.146 36.781)" xlink:href="#HelveticaWorld-Regular-8722"/><use transform="matrix(.7 0 0 .7 153.161 36.781)" xlink:href="#HelveticaWorld-Regular-49"/></g></g><g transform="matrix(.14 0 0 -.14 7.2 17.25)" fill="#969696" id="text_13"><defs><path d="M17.828 39.11h22.453q7.813 0 11.203 3.203 3.407 3.203 3.407 9.203 0 5.468-2.938 8.718-2.922 3.25-10.062 3.25H17.828zm0-39.11H8.11v71.781h33.203q11.563 0 17.516-4.937 5.969-4.922 5.969-14.36 0-6.187-2.39-10.343-2.391-4.157-7.516-6.844 4.39-1.61 6.343-4.516 1.953-2.906 2.25-9l.625-13.375q.094-3.328 1.047-4.672.953-1.343 2.672-2.125V0H55.812q-.921 2.688-1.312 8.156-.39 5.469-.39 9.86 0 2.203-.391 4.5-.39 2.297-1.719 4.14-1.313 1.86-3.86 3-2.53 1.157-6.828 1.157H17.828z" id="HelveticaWorld-Regular-82"/><path d="M6.11 52.297h8.78V17.578q0-5.765 2.61-8.625Q20.125 6.11 25 6.11q6.781 0 10.594 4.797 3.812 4.813 3.812 12.578v28.813h8.782V0H39.89v7.625l-.188.188q-4.984-9.329-16.61-9.329-7.515 0-12.25 4.094Q6.11 6.688 6.11 14.703z" id="HelveticaWorld-Regular-117"/><path d="M49.219 0h-8.844v32.172q0 7.422-2.594 10.578-2.578 3.156-8.578 3.156-5.906 0-9.875-4.5-3.953-4.484-3.953-12.89V0H6.594v52.297h8.297v-7.375h.203q6.203 8.89 15.812 8.89 8.89 0 13.594-4.718 4.719-4.703 4.719-13.5z" id="HelveticaWorld-Regular-110"/><path d="M17.188 45.016V10.984q0-2 1.093-3.046 1.11-1.047 3.938-1.047h3.375V0Q20.797-.688 19-.688q-5.516 0-8.063 2.641-2.53 2.64-2.53 8.547v34.516H1.311v7.28h7.094v14.595h8.781V52.297h8.407v-7.281z" id="HelveticaWorld-Regular-116"/><path d="M6.594 61.813v9.968h8.781v-9.969zM15.375 0H6.594v52.297h8.781z" id="HelveticaWorld-Regular-105"/><path d="M6.594 52.297h8.297v-7.375h.203q5.906 8.89 15.812 8.89 9.813 0 13.922-8.5 3.75 4.594 7.266 6.547 3.515 1.953 8.703 1.953 6.781 0 11.484-4.453Q77 44.922 77 36.187V0h-8.781v33.797q0 6.094-2.297 9.094-2.297 3.015-7.422 3.015-5.172 0-8.75-4.203-3.563-4.203-3.563-9.812V0h-8.78v36.188q0 4.53-2.11 7.124-2.094 2.594-6.094 2.594-6.297 0-10.062-4.687-3.766-4.688-3.766-12.703V0H6.594z" id="HelveticaWorld-Regular-109"/><path d="M42.484 30.328q-.687 8.485-4.5 12.031-3.797 3.547-10.109 3.547-6.39 0-10.328-4.5-3.922-4.484-4.172-11.078zm8.391-13.922q-1.453-8.11-7.953-13.422-5.719-4.5-15.047-4.593-10.984.093-17.438 7.203Q4 12.704 4 24.704q0 13.78 6.64 21.437 6.641 7.672 18.47 7.672 10.593 0 16.546-7.922 5.953-7.907 5.953-22.594H13.375q0-8.203 3.813-12.703Q21 6.109 28.608 6.109q5.375 0 9.235 3.235 3.86 3.25 4.25 7.062z" id="HelveticaWorld-Regular-101"/><path d="M14.203-12.5H25v-7.078H6.297v91.797H25v-7.125H14.203z" id="HelveticaWorld-Regular-91"/><path d="M36.078 37.406q-.187 4.688-3.344 6.735-3.14 2.047-9.047 2.047-4.296 0-7.359-1.907-3.047-1.89-3.047-5.468 0-2.829 1.797-4.172 1.813-1.344 7.828-2.86l8.688-2.187q7.906-2 11.297-5.11 3.406-3.093 3.406-8.656 0-7.719-5.64-12.531-5.641-4.813-15.063-4.813-11 0-16.64 4.563-5.626 4.578-5.735 13.75h8.5q.203-5.422 3.594-8.063 3.39-2.625 10.171-2.625 5.516 0 8.766 2.188 3.25 2.203 3.25 6.11 0 2.78-2.11 4.437-2.093 1.672-8.296 3.078l-10.203 2.5q-6.203 1.562-9.157 4.656-2.953 3.094-2.953 8.031 0 7.72 5.516 12.203 5.531 4.5 14.406 4.5 9.485 0 14.531-4.624 5.047-4.61 5.344-11.782z" id="HelveticaWorld-Regular-115"/><path d="M13.625 65.094H2.781v7.125h18.703v-91.797H2.781v7.078h10.844z" id="HelveticaWorld-Regular-93"/></defs><use xlink:href="#HelveticaWorld-Regular-82"/><use x="70.387" xlink:href="#HelveticaWorld-Regular-117"/><use x="125.172" xlink:href="#HelveticaWorld-Regular-110"/><use x="180.348" xlink:href="#HelveticaWorld-Regular-116"/><use x="208.033" xlink:href="#HelveticaWorld-Regular-105"/><use x="230.055" xlink:href="#HelveticaWorld-Regular-109"/><use x="313.063" xlink:href="#HelveticaWorld-Regular-101"/><use x="368.482" xlink:href="#HelveticaWorld-Regular-32"/><use x="392.896" xlink:href="#HelveticaWorld-Regular-91"/><use x="420.68" xlink:href="#HelveticaWorld-Regular-115"/><use x="470.68" xlink:href="#HelveticaWorld-Regular-93"/></g></g><path clip-path="url(#p63ff27fe31)" d="M77.805 286.26l16.233-.262 16.232-1.17 16.233-1.909 16.233-4.13 16.232-5.041 16.233-7.968 16.233-10.907 16.233-12.74 16.232-14.24 16.233-15.191 16.233-15.548 16.233-15.842 16.232-15.943 16.233-16.08 16.233-15.985 16.232-16.135 16.233-16.265 16.233-16.11 16.233-16.278 16.232-16.205 16.233-16.132 16.233-16.031" fill="none" stroke="#1f77b4" stroke-linecap="square" stroke-width="1.5" id="line2d_18"/><path clip-path="url(#p63ff27fe31)" d="M77.805 255.849l16.233.086 16.232-.236 16.233.249 16.233-.35 16.232.375 16.233-.367 16.233-.107 16.233-.665 16.232-1.184 16.233-1.481 16.233-2.83 16.233-4.944 16.232-7.29 16.233-9.822 16.233-11.764 16.232-13.385 16.233-14.645 16.233-15.962 16.233-21.615 16.232-18.623 16.233-17.239 16.233-15.592" fill="none" stroke="#ff7f0e" stroke-linecap="square" stroke-width="1.5" id="line2d_19"/><path clip-path="url(#p63ff27fe31)" d="M77.805 267.462l16.233-.104 16.232-.154 16.233.346 16.233-.383 16.232.29 16.233-.455 16.233-.45 16.233-.651 16.232-1.46 16.233-2.616 16.233-4.118 16.233-6.798 16.232-9.189 16.233-11.43 16.233-13.107 16.232-14.083 16.233-15.112 16.233-16.228 16.233-23.121 16.232-17.934 16.233-16.905 16.233-17.499" fill="none" stroke="#2ca02c" stroke-linecap="square" stroke-width="1.5" id="line2d_20"/><g transform="matrix(.14 0 0 -.14 435.158 23.723)" fill="#1f77b4" id="text_14"><defs><path d="M14.984 23.688q0-8.407 4.094-13 4.11-4.579 10.219-4.579 6.687 0 10.39 5.438 3.72 5.453 3.72 14.765 0 10.22-3.563 14.907-3.563 4.687-10.735 4.687-6.984 0-10.562-5.5-3.563-5.5-3.563-16.718zm-8.39 28.609h8.297v-7.375h.203q5.61 8.89 15.625 8.89 10.11 0 15.937-7.359 5.828-7.344 5.828-18.766 0-12.796-5.953-21Q40.578-1.515 29.5-1.515q-9.094 0-13.922 7.032h-.203v-26.22H6.594z" id="HelveticaWorld-Regular-112"/><path d="M0-12.313v4.891h55.61v-4.89z" id="HelveticaWorld-Regular-95"/><path d="M38.375 26.703q-.969-1.015-3.828-1.656-2.86-.625-10.672-1.656-5.766-.688-8.469-2.844-2.703-2.14-2.703-5.656 0-4.297 2.281-6.688 2.297-2.39 7.329-2.39 6.296 0 11.171 3.578 4.891 3.593 4.891 8.718zM6.203 36.375q.297 8.844 5.734 13.14 5.454 4.297 15.844 4.297 8.297 0 13.907-3.765 5.624-3.75 5.624-10.844V9.078Q47.313 6 50.094 6q1.125 0 2.89.39V0Q50.594-.984 48-.984q-4.5 0-6.703 1.921-2.188 1.938-2.281 6.047-7.516-8.5-18.891-8.5-7.422 0-11.922 4.204Q3.72 6.89 3.72 13.624q0 6.89 3.906 11.125Q11.531 29 19 29.89l15.516 1.891q4.203.64 4.203 6.203 0 4.11-3.047 6.297-3.047 2.203-9.25 2.203-5.516 0-8.485-2.437-2.953-2.438-3.53-7.672z" id="HelveticaWorld-Regular-97"/><path d="M13.094 26.313q0-9.704 3.844-14.954 3.859-5.25 10.265-5.25 6.094 0 10.188 4.485 4.109 4.5 4.109 13.094 0 11.03-3.5 16.625-3.484 5.593-10.61 5.593-6.78 0-10.546-4.453-3.75-4.437-3.75-15.14zM50.39 0h-8.297v7.172h-.203q-4.97-8.688-15.078-8.688-10.891 0-16.86 8.297Q4 15.094 4 27.688q0 11.625 5.906 18.875 5.922 7.25 15.875 7.25 9.813 0 15.625-8.891l.203.594V71.78h8.782z" id="HelveticaWorld-Regular-100"/></defs><use xlink:href="#HelveticaWorld-Regular-110"/><use x="55.176" xlink:href="#HelveticaWorld-Regular-112"/><use x="111.67" xlink:href="#HelveticaWorld-Regular-95"/><use x="167.285" xlink:href="#HelveticaWorld-Regular-97"/><use x="222.217" xlink:href="#HelveticaWorld-Regular-100"/><use x="279.199" xlink:href="#HelveticaWorld-Regular-100"/><use x="336.182" xlink:href="#HelveticaWorld-Regular-95"/><use x="391.797" xlink:href="#HelveticaWorld-Regular-97"/><use x="446.729" xlink:href="#HelveticaWorld-Regular-116"/></g><g transform="matrix(.14 0 0 -.14 435.158 107.955)" fill="#ff7f0e" id="text_15"><defs><path d="M49.031 0H37.703l-12.89 19.672L12.203 0H1.125l18.266 26.906L2 52.296h11.188l12.109-18.405L37.5 52.297h10.688l-17.579-25.39z" id="HelveticaWorld-Regular-120"/></defs><use xlink:href="#HelveticaWorld-Regular-110"/><use x="55.176" xlink:href="#HelveticaWorld-Regular-112"/><use x="109.045" xlink:href="#HelveticaWorld-Regular-120"/><use x="159.045" xlink:href="#HelveticaWorld-Regular-95"/><use x="214.66" xlink:href="#HelveticaWorld-Regular-97"/><use x="269.592" xlink:href="#HelveticaWorld-Regular-100"/><use x="326.574" xlink:href="#HelveticaWorld-Regular-100"/><use x="383.557" xlink:href="#HelveticaWorld-Regular-95"/><use x="439.172" xlink:href="#HelveticaWorld-Regular-97"/><use x="494.104" xlink:href="#HelveticaWorld-Regular-116"/></g><g transform="matrix(.14 0 0 -.14 435.158 93.955)" fill="#2ca02c" id="text_16"><use xlink:href="#HelveticaWorld-Regular-110"/><use x="55.176" xlink:href="#HelveticaWorld-Regular-112"/><use x="109.045" xlink:href="#HelveticaWorld-Regular-120"/><use x="159.045" xlink:href="#HelveticaWorld-Regular-95"/><use x="214.66" xlink:href="#HelveticaWorld-Regular-115"/><use x="264.66" xlink:href="#HelveticaWorld-Regular-117"/><use x="319.445" xlink:href="#HelveticaWorld-Regular-109"/><use x="402.453" xlink:href="#HelveticaWorld-Regular-95"/><use x="458.068" xlink:href="#HelveticaWorld-Regular-97"/><use x="513" xlink:href="#HelveticaWorld-Regular-116"/></g></g></g><defs><clipPath id="p63ff27fe31"><path d="M77.805 20.148h357.12V286.26H77.805z"/></clipPath></defs></svg>